<?xml version="1.0" encoding="utf-8"?>
<!-- Generator: Adobe Illustrator 19.2.0, SVG Export Plug-In . SVG Version: 6.00 Build 0)  -->
<svg version="1.1" id="Layer_1" xmlns="http://www.w3.org/2000/svg" xmlns:xlink="http://www.w3.org/1999/xlink" x="0px" y="0px"
	 viewBox="0 0 74.7 81.3" style="enable-background:new 0 0 74.7 81.3;" xml:space="preserve">
<style type="text/css">
	.Drop_x0020_Shadow{fill:none;}
	.Round_x0020_Corners_x0020_2_x0020_pt{fill:#FFFFFF;stroke:#000000;stroke-miterlimit:10;}
	.Live_x0020_Reflect_x0020_X{fill:none;}
	.Bevel_x0020_Soft{fill:url(#SVGID_1_);}
	.Dusk{fill:#FFFFFF;}
	.Foliage_GS{fill:#FFDD00;}
	.Pompadour_GS{fill-rule:evenodd;clip-rule:evenodd;fill:#44ADE2;}
	.st0{fill:#FFFFFF;}
</style>
<linearGradient id="SVGID_1_" gradientUnits="userSpaceOnUse" x1="0" y1="0" x2="0.7071" y2="0.7071">
	<stop  offset="0" style="stop-color:#DEDFE3"/>
	<stop  offset="0.1738" style="stop-color:#D8D9DD"/>
	<stop  offset="0.352" style="stop-color:#C9CACD"/>
	<stop  offset="0.5323" style="stop-color:#B4B5B8"/>
	<stop  offset="0.7139" style="stop-color:#989A9C"/>
	<stop  offset="0.8949" style="stop-color:#797C7E"/>
	<stop  offset="1" style="stop-color:#656B6C"/>
</linearGradient>
<g>
	<path class="st0" d="M60.6,69.7h3.3V32.8l3.7,3.4c0.2,0.2,0.5,0.3,0.8,0.3c0.3,0,0.6-0.1,0.8-0.4c0.4-0.4,0.4-1.1-0.1-1.6l-9.6-8.9
		V11.1H48.4v4.3L37.3,5.1L5.6,34.6c-0.4,0.4-0.5,1.1-0.1,1.6c0.4,0.4,1.1,0.5,1.6,0.1l3.7-3.4v36.9h17.7h17.7 M50.6,13.3h6.6v10.3
		l-6.6-6.2V13.3z M46.2,69.7l-2.4-2.2l-30.9,0V30.8L37.3,8.1l15.8,14.7l6.3,5.9l0,0l2.2,2.1v36.8h-3l2,2.2"/>
	<g>
		<g>
			<path class="st0" d="M49.3,49.2c0-9-7.3-16.2-16.2-16.2c-9,0-16.2,7.3-16.2,16.2s7.3,16.2,16.2,16.2C42,65.4,49.3,58.1,49.3,49.2
				z M33.1,61.3c-6.7,0-12.2-5.5-12.2-12.2S26.4,37,33.1,37c6.7,0,12.2,5.5,12.2,12.2S39.8,61.3,33.1,61.3z"/>
			<path class="st0" d="M58.9,69.3L49,59.4c-1.5,2.3-3.4,4.3-5.7,5.7l9.9,9.9c1.6,1.6,4.2,1.6,5.7,0C60.5,73.4,60.5,70.9,58.9,69.3z
				"/>
		</g>
	</g>
</g>
</svg>
