<?xml version="1.0" encoding="utf-8"?>
<!-- Generator: Adobe Illustrator 19.2.0, SVG Export Plug-In . SVG Version: 6.00 Build 0)  -->
<svg version="1.1" id="Layer_1" xmlns="http://www.w3.org/2000/svg" xmlns:xlink="http://www.w3.org/1999/xlink" x="0px" y="0px"
	 viewBox="0 0 670.7 180" style="enable-background:new 0 0 670.7 180;" xml:space="preserve">
<style type="text/css">
	.st0{display:none;}
	.st1{display:inline;fill:#064D82;}
	.st2{fill:#FFFFFF;}
	.st3{fill:#ED1C24;}
</style>
<g class="st0">
	<rect x="-49.3" y="0" class="st1" width="720" height="180"/>
</g>
<g>
	<g>
		<path class="st2" d="M18.6,67.2h16.8v8.9c3.4-3.1,6.7-5.5,10-7.2c3.3-1.8,7.3-2.6,12.2-2.6V84c-1.6-0.7-3.3-1-5.1-1
			s-3.6,0.3-5.7,0.9c-2,0.6-3.9,1.6-5.6,3c-1.7,1.4-3.1,3.3-4.2,5.6c-1.1,2.3-1.6,5.1-1.6,8.5v49.5H18.6V67.2z"/>
		<path class="st2" d="M80.8,115.2v11.3c0,2.6,0.7,4.7,2.2,6.1c1.5,1.4,3.5,2.1,6,2.1c3.2,0,5.3-0.9,6.3-2.8c1-1.9,1.7-3.7,1.9-5.6
			H114c0,3.5-0.6,6.8-1.7,9.9c-1.2,3.1-2.8,5.7-5,7.9c-2.2,2.3-4.8,4.1-7.9,5.4c-3.1,1.3-6.5,2-10.4,2c-5.1,0-9.6-1.1-13.3-3.3
			c-3.7-2.2-6.6-5.1-8.5-8.7c-1.2-2.2-2-4.7-2.5-7.6c-0.4-2.8-0.7-6-0.7-9.4V95.2c0-3.4,0.2-6.5,0.7-9.4c0.4-2.8,1.3-5.4,2.5-7.6
			c2-3.6,4.8-6.5,8.5-8.7s8.2-3.3,13.3-3.3c3.8,0,7.3,0.7,10.4,2s5.8,3.1,7.9,5.5s3.8,5.1,4.9,8.3c1.2,3.2,1.7,6.6,1.7,10.2v23H80.8
			z M80.8,102.1h16.4v-9.5c0-3.2-0.7-5.6-2.2-7.1c-1.5-1.6-3.5-2.4-6-2.4s-4.5,0.8-6,2.4s-2.2,4-2.2,7.1
			C80.8,92.6,80.8,102.1,80.8,102.1z"/>
		<path class="st2" d="M120.6,67.2h16.8v8.1h0.3c1.8-2.6,3.9-4.8,6.3-6.5c2.5-1.7,5.6-2.5,9.4-2.5c2.1,0,4.2,0.4,6.2,1.1
			c2.1,0.7,3.9,1.9,5.6,3.5s3,3.8,3.9,6.3c1,2.6,1.5,5.7,1.5,9.4v63.9h-16.8V92.9c0-3.1-0.7-5.5-2.1-7.2c-1.4-1.8-3.5-2.6-6.1-2.6
			c-3.2,0-5.4,1-6.6,3c-1.2,2-1.8,4.8-1.8,8.5v56h-16.8V67.2H120.6z"/>
		<path class="st2" d="M185.8,41.9h16.8v25.3h10.3v13.1h-10.3v46.2c0,2,0.2,3.5,0.6,4.6c0.4,1.1,1,1.9,1.8,2.5
			c0.8,0.5,1.9,0.9,3.2,1s2.9,0.2,4.8,0.2v15.8h-6.9c-3.8,0-7-0.6-9.6-1.8s-4.6-2.7-6.2-4.6c-1.5-1.9-2.7-4-3.4-6.3
			c-0.7-2.4-1.1-4.6-1.1-6.8V80.4h-8.4V67.2h8.4L185.8,41.9L185.8,41.9z"/>
		<path class="st2" d="M220.6,33.6h24.8c9.5,0,16.8,2.7,21.9,8c5,5.3,7.6,12.7,7.6,22.3v54.7c0,11-2.7,19-8,24.2s-13,7.8-22.9,7.8
			h-23.3L220.6,33.6L220.6,33.6z M237.4,134.8h7.7c4.7,0,8-1.2,10-3.5c2-2.4,3-6.1,3-11.1V63.8c0-4.6-0.9-8.2-2.8-10.7
			c-1.9-2.5-5.3-3.8-10.2-3.8h-7.7V134.8z"/>
		<path class="st2" d="M284.9,33.6h49.9v15.8h-33.2v34.3h28.9v15.8h-28.9v34.3h33.2v16.8h-49.9V33.6z"/>
		<path class="st2" d="M366.5,33.6h14l26.1,117h-16.8l-4.9-25.1h-22.8l-4.9,25.1h-16.8L366.5,33.6z M373.6,67.2h-0.3l-8.2,42.4h16.8
			L373.6,67.2z"/>
		<path class="st2" d="M411.1,33.6h16.8v100.2h33.2v16.8h-49.9v-117H411.1z"/>
		<path class="st2" d="M521.4,67.2h-16.8v-3.8c0-3.8-0.9-7.1-2.7-9.9s-4.8-4.2-9.1-4.2c-2.3,0-4.2,0.4-5.7,1.3
			c-1.5,0.9-2.6,2-3.5,3.4c-0.8,1.4-1.4,3-1.7,4.8s-0.5,3.7-0.5,5.7c0,2.3,0.1,4.2,0.2,5.8c0.2,1.6,0.6,3,1.2,4.1s1.6,2.2,2.9,3
			c1.3,0.9,3,1.8,5.2,2.6l12.8,5.1c3.7,1.4,6.7,3.1,9,5c2.3,1.9,4.1,4.2,5.3,6.7c1.3,2.6,2.1,5.5,2.5,8.9c0.4,3.3,0.7,7.1,0.7,11.4
			c0,4.9-0.5,9.5-1.5,13.7c-1,4.2-2.6,7.8-4.8,10.8s-5.2,5.4-9,7.1c-3.7,1.8-8.3,2.6-13.6,2.6c-4.1,0-7.8-0.7-11.3-2.1
			c-3.5-1.4-6.5-3.4-9-5.8c-2.5-2.5-4.5-5.4-6-8.8c-1.5-3.4-2.2-7.1-2.2-11v-6.2h16.8v5.3c0,3.1,0.9,5.8,2.7,8.3s4.8,3.7,9.1,3.7
			c2.8,0,5.1-0.4,6.7-1.2c1.6-0.8,2.8-2,3.6-3.5s1.3-3.3,1.6-5.5c0.2-2.2,0.3-4.6,0.3-7.2c0-3.1-0.1-5.6-0.3-7.6s-0.7-3.6-1.4-4.8
			c-0.7-1.2-1.7-2.2-3-3s-2.9-1.6-5-2.5l-12-4.9c-7.2-3-12.1-6.9-14.5-11.7c-2.5-4.9-3.7-11-3.7-18.3c0-4.4,0.6-8.5,1.8-12.5
			c1.2-3.9,3-7.3,5.3-10.2c2.4-2.8,5.3-5.1,9-6.8c3.6-1.7,7.8-2.5,12.7-2.5c4.2,0,8,0.8,11.4,2.3c3.5,1.5,6.4,3.6,8.9,6.1
			c2.5,2.5,4.4,5.3,5.7,8.5c1.3,3.1,2,6.3,2,9.6v8.2H521.4z"/>
	</g>
</g>
<g>
	<polygon class="st3" points="598.9,151.8 529.4,151.8 529.4,32.2 598.9,32.2 659.7,92 	"/>
</g>
<g>
	<g>
		<path class="st2" d="M590.4,134.9v-5.5h5.7v5.5H590.4z"/>
		<path class="st2" d="M587.2,107.1c1.2,0,2.4,0.2,3.5,0.7s2.1,1.1,2.9,1.9c0.8,0.8,1.5,1.7,2,2.8c0.5,1.1,0.8,2.2,0.8,3.4
			c0,1-0.2,2.1-0.4,3.2c-0.3,1.1-0.8,2-1.5,2.9s-1.7,1.6-2.9,2.1c-1.2,0.6-2.7,0.8-4.5,0.8h-22c-1.3,0-2.5-0.2-3.6-0.6
			s-2.1-1-2.9-1.8c-0.8-0.8-1.5-1.7-1.9-2.8c-0.5-1.1-0.7-2.3-0.7-3.6c0-1.3,0.2-2.4,0.7-3.5s1.1-2,2-2.8c0.8-0.8,1.9-1.4,3-1.9
			c1.2-0.4,2.5-0.7,3.8-0.7h2.2v5.5h-2c-1.1,0-2.1,0.3-2.9,0.9c-0.8,0.6-1.2,1.4-1.2,2.5c0,1.4,0.4,2.3,1.3,2.7
			c0.9,0.5,2,0.7,3.3,0.7h20.4c1.2,0,2.1-0.2,2.9-0.7s1.2-1.4,1.2-2.6c0-0.4-0.1-0.7-0.2-1.2c-0.1-0.4-0.3-0.8-0.6-1.1
			c-0.3-0.3-0.7-0.6-1.2-0.8c-0.5-0.2-1.2-0.3-2-0.3h-2v-5.5h2.5V107.1z"/>
		<path class="st2" d="M565.6,103c-1.6,0-3-0.3-4.3-0.8c-1.2-0.5-2.3-1.2-3.1-2.1s-1.4-1.9-1.8-3c-0.4-1.1-0.6-2.2-0.6-3.3
			c0-1.1,0.2-2.2,0.6-3.3c0.4-1.1,1-2.1,1.8-3s1.8-1.6,3.1-2.1c1.2-0.5,2.7-0.8,4.3-0.8h21.1c1.6,0,3.1,0.3,4.3,0.8s2.2,1.2,3,2.1
			s1.4,1.9,1.8,3c0.4,1.1,0.6,2.2,0.6,3.3c0,1.1-0.2,2.2-0.6,3.3c-0.4,1.1-1,2.1-1.8,3s-1.8,1.6-3,2.1s-2.6,0.8-4.3,0.8H565.6z
			 M586.7,97.5c1.4,0,2.4-0.4,3.1-1.1c0.7-0.7,1-1.6,1-2.6s-0.3-1.9-1-2.6s-1.7-1.1-3.1-1.1h-21.1c-1.4,0-2.4,0.4-3.1,1.1
			c-0.7,0.7-1,1.6-1,2.6s0.3,1.9,1,2.6s1.7,1.1,3.1,1.1H586.7z"/>
		<path class="st2" d="M556.2,79.7v-5.3l21.1-7.1v-0.1l-21.1-7v-5.3h39.9v5.5h-24.3v0.1l17.2,5.4v2.8l-17.2,5.4v0.1h24.3v5.5H556.2z
			"/>
	</g>
</g>
</svg>
