<?xml version="1.0" encoding="utf-8"?>
<!-- Generator: Adobe Illustrator 19.2.0, SVG Export Plug-In . SVG Version: 6.00 Build 0)  -->
<svg version="1.1" id="Layer_1" xmlns="http://www.w3.org/2000/svg" xmlns:xlink="http://www.w3.org/1999/xlink" x="0px" y="0px"
	 viewBox="0 0 74.7 81.3" style="enable-background:new 0 0 74.7 81.3;" xml:space="preserve">
<style type="text/css">
	.st0{fill:#545454;}
	.st1{fill:#9D9FA0;}
	.st2{fill:#919191;}
</style>
<g>
	<path class="st0" d="M61.7,28l-7.4-6.9V9.9h-8.5v3.3l-8.5-7.9L12.9,28c-0.3,0.3-0.4,0.9,0,1.2c0.3,0.3,0.9,0.4,1.2,0l2.8-2.6V55
		h13.6h13.6h13.6V26.6l2.8,2.6c0.2,0.2,0.4,0.2,0.6,0.2c0.2,0,0.5-0.1,0.6-0.3C62.1,28.8,62.1,28.3,61.7,28z M47.5,11.6h5.1v8
		l-5.1-4.7V11.6z M32.2,53.2V35.3c0-0.4,0.4-0.8,0.8-0.8h8.6c0.4,0,0.8,0.4,0.8,0.8v17.9C42.4,53.2,32.2,53.2,32.2,53.2z M56,53.2
		H44.1V35.3c0-1.4-1.1-2.5-2.5-2.5H33c-1.4,0-2.5,1.1-2.5,2.5v17.9H18.6V25L37.3,7.6l12.1,11.3l4.9,4.5l0,0L56,25V53.2z"/>
	<g>
		<g>
			<path class="st1" d="M64.2,51.4c-3.4,1.6-15.1,5.9-15.1,5.9l-13.8-0.9c0,0,7.9-2.2,11-2.9s1.7-4.2,0-4.2s-16.5,0.6-16.5,0.6
				L20,53.4l2.6,16.5c0,0,2-3.5,4-3.5s19.6,0.5,22,0C51,65.9,65.5,56,67.3,54.8C68.9,53.8,67.5,49.8,64.2,51.4z"/>
			<polygon class="st2" points="6.7,55.3 9.9,76 21.8,73.8 18,53.3 			"/>
		</g>
	</g>
</g>
</svg>
