<?xml version="1.0" encoding="utf-8"?>
<!-- Generator: Adobe Illustrator 19.2.0, SVG Export Plug-In . SVG Version: 6.00 Build 0)  -->
<svg version="1.1" id="Layer_1" xmlns="http://www.w3.org/2000/svg" xmlns:xlink="http://www.w3.org/1999/xlink" x="0px" y="0px"
	 viewBox="0 0 74.7 81.3" style="enable-background:new 0 0 74.7 81.3;" xml:space="preserve">
<style type="text/css">
	.Drop_x0020_Shadow{fill:none;}
	.Round_x0020_Corners_x0020_2_x0020_pt{fill:#FFFFFF;stroke:#000000;stroke-miterlimit:10;}
	.Live_x0020_Reflect_x0020_X{fill:none;}
	.Bevel_x0020_Soft{fill:url(#SVGID_1_);}
	.Dusk{fill:#FFFFFF;}
	.Foliage_GS{fill:#FFDD00;}
	.Pompadour_GS{fill-rule:evenodd;clip-rule:evenodd;fill:#44ADE2;}
	.st0{fill:#FFFFFF;}
</style>
<linearGradient id="SVGID_1_" gradientUnits="userSpaceOnUse" x1="0" y1="0" x2="0.7071" y2="0.7071">
	<stop  offset="0" style="stop-color:#DEDFE3"/>
	<stop  offset="0.1738" style="stop-color:#D8D9DD"/>
	<stop  offset="0.352" style="stop-color:#C9CACD"/>
	<stop  offset="0.5323" style="stop-color:#B4B5B8"/>
	<stop  offset="0.7139" style="stop-color:#989A9C"/>
	<stop  offset="0.8949" style="stop-color:#797C7E"/>
	<stop  offset="1" style="stop-color:#656B6C"/>
</linearGradient>
<path class="st0" d="M71.4,37.5l-10.8-10V11.2H48.3V16L35.9,4.5l-35.5,33c-0.5,0.5-0.5,1.2-0.1,1.8c0.5,0.5,1.2,0.5,1.8,0.1l4.1-3.8
	v41.3H26h19.8h19.8V35.5l4.1,3.8c0.2,0.2,0.5,0.3,0.8,0.3c0.3,0,0.7-0.1,0.9-0.4C72,38.8,71.9,38,71.4,37.5z M50.8,13.6h7.4v11.6
	l-7.4-6.9V13.6z M28.5,74.3V48.2c0-0.6,0.5-1.2,1.2-1.2h12.5c0.6,0,1.2,0.5,1.2,1.2v26.1L28.5,74.3z M63.2,74.3H45.8V48.2
	c0-2-1.6-3.6-3.6-3.6H29.6c-2,0-3.6,1.6-3.6,3.6v26.1H8.7V33.2L35.9,7.9l17.7,16.4l7.1,6.6l0,0l2.5,2.3V74.3z"/>
</svg>
