<?xml version="1.0" encoding="utf-8"?>
<!-- Generator: Adobe Illustrator 19.2.0, SVG Export Plug-In . SVG Version: 6.00 Build 0)  -->
<svg version="1.1" id="Layer_1" xmlns="http://www.w3.org/2000/svg" xmlns:xlink="http://www.w3.org/1999/xlink" x="0px" y="0px"
	 viewBox="0 0 74.7 81.3" style="enable-background:new 0 0 74.7 81.3;" xml:space="preserve">
<style type="text/css">
	.st0{fill:#FFFFFF;}
</style>
<g>
	<path class="st0" d="M61.7,27.7l-7.4-6.9V9.6h-8.5v3.3L37.3,5L12.9,27.7c-0.3,0.3-0.4,0.9,0,1.2c0.3,0.3,0.9,0.4,1.2,0l2.8-2.6
		v28.4h13.6h13.6h13.6V26.3l2.8,2.6c0.2,0.2,0.4,0.2,0.6,0.2c0.2,0,0.5-0.1,0.6-0.3C62.1,28.5,62.1,28,61.7,27.7z M47.5,11.3h5.1v8
		l-5.1-4.7V11.3z M32.2,52.9V35c0-0.4,0.4-0.8,0.8-0.8h8.6c0.4,0,0.8,0.4,0.8,0.8v17.9H32.2z M56,52.9H44.1V35
		c0-1.4-1.1-2.5-2.5-2.5H33c-1.4,0-2.5,1.1-2.5,2.5v17.9H18.6V24.7L37.3,7.3l12.1,11.3l4.9,4.5l0,0l1.7,1.6C56,24.7,56,52.9,56,52.9
		z"/>
	<g>
		<g>
			<path class="st0" d="M64.2,51.1C60.8,52.7,49.1,57,49.1,57l-13.8-0.9c0,0,7.9-2.2,11-2.9s1.7-4.2,0-4.2s-16.5,0.6-16.5,0.6
				L20,53.1l2.6,16.5c0,0,2-3.5,4-3.5s19.6,0.5,22,0c2.4-0.5,16.9-10.4,18.7-11.6C68.9,53.5,67.5,49.5,64.2,51.1z"/>
			<polygon class="st0" points="6.7,55 9.9,75.7 21.8,73.5 18,53 			"/>
		</g>
	</g>
</g>
</svg>
